<?xml version="1.0" encoding="UTF-8"?>
<svg id="Ebene_1" xmlns="http://www.w3.org/2000/svg" version="1.1" viewBox="0 0 647.9 577.3">
  <!-- Generator: Adobe Illustrator 29.0.1, SVG Export Plug-In . SVG Version: 2.1.0 Build 192)  -->
  <defs>
    <style>
      .st0 {
        fill: #fff;
      }
    </style>
  </defs>
  <path class="st0" d="M284.8,344.4c3.6,0,8.6-.3,12.1-.8,1.4-.2,2.5-1.9,3.2-3.1-.2-2.1-5.8-9.1-7.5-10.9-9.1-10.4-20.5-19.9-30.7-29.2-30.4-27.4-62.3-53.6-95.8-77.3-8.2-5.8-17.5-12.6-26.1-17.7-1.4-.8-4.1-2.9-5.7-2.2-1.5.7-2.9,3.9-1.2,5.1,31,20,60.6,42.2,89.1,65.6,19.9,16.3,40.7,33.8,58.5,52.2,3.6,3.7,7,7.6,10.6,11.4-36,3-72.4-8.1-103.8-25-46.5-25.2-90.5-73.6-105.8-124.8-.9-3.1-6.4-24.1-5.3-25.3,4.7-.5,9.5-1.3,14.3-1.6,55.7-3.7,127,22.1,166.4,61.8.6.6,1.6,1.6,1.9,2.4,1.8,4.4,2.1,13.7,3.1,18.8,6.7,36.9,22.9,74.9,52.6,99,1.3,1.1,6,4.8,7.4,4.7,1.4,0,8.6-5.6,10-6.8,28.8-25.2,43-60.6,50-97.6.9-4.5,1.4-14.3,3.2-18,1.8-3.8,13.9-13.8,17.7-16.7,42.2-32.7,109.6-54.5,163-46.4,1.1.2,1.8.5,1.8,1.7-.3,8.5-5.2,23.5-8.2,31.8-21.1,59-77.8,112-136.8,132.1-19.6,6.7-47,12.4-67.7,10.6-.4,0-2.1-.2-1.8-1,.3-.7,4-3.9,4.9-4.9,20.2-22.6,45-43,68.5-62.2,26.1-21.3,51.7-39.1,79.4-58,1.4-.9,5.8-3.9,6.1-5.3.1-.7-2.1-3.2-2.7-3.5-1.7-.8-7.1,3.1-8.8,4.1-23.9,15-48.4,34-70.4,51.7-25.6,20.5-56.1,45.1-77.9,69.3-1.8,2-8.8,10.4-8.3,12.7.2.7.9.7,1.4,1.2.3.3.4.9.7,1.1,1,.8,7.3.6,9,.8,83.4,6,172.2-59.2,205.3-133.4,5.9-13.2,12.9-33.8,14.1-48.1.4-5-1.3-5.3-5.7-6.3-25.3-5.7-60.9-.6-85.8,6.3-35.4,9.9-69.9,27.3-96.9,52.3-.7-.5-.5-.6-.5-1.3.2-5.8.7-11.5.7-17.4,0-1.1-.5-2.2-.4-3.5.1-4.9,3.1-9.6,5.4-13.8,10.8-19.6,23.9-38.2,34.6-57.4,1.2-2.1,3.5-6.4.3-7.9-2.2-1-4.2,2.4-5.4,4-11.5,15.6-23.7,37.8-33.2,54.9-.3.6-1.4,4.3-2.4,2.8-5-55-22.4-107.9-49.4-155.7-2.5-4.5-5.3-9.5-8.1-13.8-3.8-5.9-5.3-8.6-10.1-1.6-22.9,33.7-42.2,83.5-50.9,123.3-3.5,16-6.3,32.5-7.2,48.9-.9.2-.6-.1-.9-.5-5.3-8.3-9.8-17.4-14.9-25.8-6.2-10.4-12.8-22.2-19.7-31.9-1-1.4-3.9-6.2-5.9-4.8-1.7,1.3-1.7,4.7-.5,6.4,8,12.8,16.1,25.5,23.7,38.5,3.8,6.5,15.3,24.4,16.4,30.6,1.2,6.4,0,13.8.5,20.3.1,1.9.9,3.7.8,5.7-.6.1-.9,0-1.4-.4-2.8-1.8-6.8-6.3-9.8-8.6-37-29.3-86.7-48.2-133.9-51.7-10.2-.8-31.3-.6-40.7,2.7-.9.3-2.7,1.1-3.1,2-1.4,3,2.3,17.8,3.4,21.7,22.7,88.8,118.9,166.2,211.6,163.9ZM267,161.4c6.5-53.7,25.6-103.9,53.3-149.9.5-.8.9-1.7,1.1-2.6.2-.2,1.6,1.5,1.9,1.8,3.2,4.4,6.8,11.4,9.5,16.3,35,63.8,55.8,145.3,42.5,218-6.1,33-20.7,66.5-45.9,89.2-.7.6-4.4,4-4.9,3.5,0-1,.4-1.9.4-2.9,1.3-44-.4-89.1-.4-133.1,0-34.6.8-69.2.4-103.8-.6-4.8-1.7-7-6.7-4.5v243.5c-.5.6-6.2-4.4-6.9-5.1-43.6-43.4-51.5-111.9-44.4-170.5Z"/>
  <path class="st0" d="M71.1,480.6h6.9c-10.7-8.1-17.6-19.6-26.2-29.5-1-1.2-7.3-7.3-7.4-7.9-.3-1.4,3.3-.5,4.5-.6,12.2-.7,23.3-5.9,26.5-18.6,4.3-17.2-7.9-31.7-25.3-32H7.9c0,.4-.5.9-.5,1v86.9c.5.9,7,1,7.1.4l.4-84.9c.2-.6,2.5-1.3,3.3-1.4,6.4-.8,19.6-.4,26.3,0,31.8,2,30.7,45,.4,46.6l-21.5.4c-.9,2.6,5.4,1.4,7.4,1.6,5.5.5,9.6,5.2,13.1,9.2,4.3,4.9,20.7,29,26.1,29.2.6,0,1-.4,1.1-.4Z"/>
  <path class="st0" d="M250.2,480.6h7c.5-12.7-.7-25.9,0-38.6.4-6.7,1.8-11.5,6.7-16.4,7.3-7.3,23.4-10,26.8,2.5.4,1.4,1,4.4,1,5.7v47.2l7-.4v-47.2c0-13.1-15.3-17.5-25.8-14.9-6.4,1.6-12.1,6.8-15.3,12.3-.5.4-3.3-4.4-3.8-5-5.1-6.8-11.1-8.6-19.5-7.9-7.5.7-13.5,6.3-17.6,12.1-.2-.2-.6-1.3-.6-1.4v-9l-.9-.5-6.2.5-.4.8.4,60.1h7v-44c0-2.9,5.5-9.8,7.8-11.7,5.7-4.9,16.5-8,22.5-2.1,1.9,1.8,3.7,6.7,3.7,9.2v48.7Z"/>
  <path class="st0" d="M178,163.4c2,1.1,2.2.1,3.4-1,.5-.5,1.4-.6,1.4-1.4-3.8-12.5-4.6-25.8-4.3-38.9.4-14.1,2.7-28.2,6.3-41.8.7-2.6,4.5-16.1,6-17.1,6.4.3,12.9,1.9,19.2,3.6,20.8,5.5,40.3,14.7,58.5,26.1,1.3.7,3.2-2.7,3.2-3.5-.2-2.3-4.7-4.7-6.6-5.9-11.8-7.6-26.5-13.9-39.7-18.6-9.5-3.4-25.3-8.5-35.3-8.6-4.7,0-5.6,4.8-6.9,8.3-10,26.7-15.2,65.8-7.9,93.5.5,2,.7,4.3,2.8,5.4Z"/>
  <path class="st0" d="M375.1,93c7.8-4.4,15.2-9.4,23.3-13.2,12.4-5.9,37.9-16,51.2-16.5,3.5-.1,4,.2,5.3,3.3,1.7,4.1,3.1,9.8,4.3,14.1,6.9,26.1,8.9,53.5,2.3,79.8.3,2.7,3.3,4.4,5.3,2.1,2.4-2.7,4.5-19.3,4.9-23.7,2.2-22.6-3.1-54.3-11.3-75.6-1.9-5-2.2-7.6-8.3-7.1-17.2,1.5-40.8,10.4-56.6,17.8-4.5,2.1-20.7,10.2-22.9,13.9-1.1,1.9.4,4.6,2.5,4.9Z"/>
  <path class="st0" d="M327.5,420.4l-8.9,5.8-.8-3.7-.4-30.4-6.3.4v88.1c.9,0,1.7.3,2.5.4,6.3.5,15.2.3,21.6,0,13.3-.6,22.8-4.4,28.2-17.3,10.6-25.7-6.3-55.6-35.9-43.4ZM336.9,478.6c-2.8.3-13.2.5-15.6,0-1.6-.4-3-2.4-3-4,.7-12.7-1-26.6,0-39.2.7-8.8,10.1-14.7,18.3-15.3,28.4-2.1,32.3,55.7.3,58.6Z"/>
  <path class="st0" d="M630.3,472.2v8.4c2.3-.6,5.2,1.2,7-.2v-43.8c0-.6-1-3.4-1.3-4.2-6-15.8-28.3-18.2-41.4-10.2-3,1.9-9.7,8.7-5.1,11.7,4.2,2.8,7.1-5.3,9.2-8,9.2-11.7,33.9-6.8,31.1,10.3-.4,2.2-4.3,3.3-6.2,3.9-12.8,4-35.1,4.8-39.5,20.4-2,6.8-1,12.7,4.5,17.4,9.5,8.1,22.8,4.2,32.3-1.8,1.8-1.2,6.1-5,7.5-5.5,1.1-.4,2,.5,2,1.6ZM602.5,478.8c-17.1-3.9-13.2-25,.4-31.7,4.5-2.2,17.8-5.2,23-5.6,1.2-.1,2.4-.1,3.6,0,.5,1,.8,1.7.9,2.8.4,4.5.4,14.9-.5,19.1-2,9.3-18.4,17.4-27.3,15.4Z"/>
  <path class="st0" d="M424.1,472.3c-12.8,16.1-38,5.2-40.1-14.3-.4-4.1.7-4.4,4.5-4.8,10.6-1,18.4-1.1,28.1-6.8,17.9-10.5,12.1-29-8.8-28.8-26,.3-40.5,28.8-27.5,50.8,10.4,17.6,39.3,19.8,48.3.2-2-2.1-3.3,2.2-4.5,3.7ZM383.3,442.9c1.1-10.9,10.5-22.3,21.8-23.2,12.2-1,19.3,8.9,12.5,19.6-5.5,8.8-21.2,13.6-31.1,12.4-4.2-.5-3.6-5.5-3.3-8.8Z"/>
  <path class="st0" d="M195.7,474.5c.5-.5,5.3-7.6,2.2-6.8-.3,0-3.2,4.8-4.1,5.7-13.5,14.3-33.9,4.9-38.6-12.7-1.2-4.4-2-6.8,3.6-7.4,10.3-1.1,18.2-.9,27.7-6.4,18.8-10.9,12.9-29.9-8.8-29.2-28.5.9-42.1,36.1-22.8,56.3,9.9,10.3,31.2,11.9,40.9.6ZM153.9,442.5c1.7-11.3,10.3-21.9,22.2-22.8,9.9-.8,17.1,6,13.7,16-3.9,11.5-21.5,17.3-32.6,16-4.4-.5-3.8-5.9-3.3-9.2Z"/>
  <path class="st0" d="M134.7,474.1c.8-1,4.2-5.3,3.1-6.4-.7-.9-4.3,4.8-4.7,5.3-11.9,13.5-31.9,6.9-38-9-1-2.6-3.6-9,0-10.3,2.8-1,8.9-.4,12.4-.9,9.7-1.4,25.5-7.2,28.6-17.6,4.2-14.3-12.6-18.7-23.4-17.1-25.7,3.8-36.6,35.6-19.8,54.9,10.1,11.6,31.4,13.2,41.9,1.2ZM92.4,445.2c.7-12,9.7-24.3,22.2-25.5,16-1.5,19.5,14.4,8.3,24-6.7,5.7-18.1,9.1-26.8,8-3.7-.4-3.9-3.4-3.7-6.5Z"/>
  <path class="st0" d="M507.1,469c-1.3,1.5-1.7,3.5-3.8,5.4-13.9,12.4-33.2,3.8-37.7-13.2-2.6-10.2,2.1-7.3,9.5-7.9,11.5-1,32.9-7.9,33.1-22.2.1-12.5-17.3-14.4-26.3-12.6-33.6,6.6-34.4,58.8,0,63.7,11.5,1.6,22.7-2.8,27.9-13.5-.6-1.1-2-.3-2.6.3ZM466.6,434.5c3.6-8.1,10.5-14.1,19.6-14.9,12.9-1.2,19.1,10.6,11.4,20.8-6,7.9-20.2,12.4-29.9,11.2-6.8-.8-2.8-13.1-1-17.1Z"/>
  <path class="st0" d="M573.7,471.6c1.5-4.7-2.2-8.4-5.5-3.9-2.4,3.4-2.4,7.4-6.5,10.3-6.5,4.6-21.4,2-29,.5-.6-.1-4.3-.8-4.2-1.3l44.2-57.7c-12.8,3.1-25.2-4.1-38-1-5.5,1.3-15.9,6-15.3,12.9.3,3.6,3.9,3.6,6.1,1.4,4.3-4.3,4.3-10.6,12.3-12.8,5.4-1.5,18.5.8,24.1,2.6.5.1.7-.3.6.6l-44.2,57.4c10.1-1.9,20,1.4,30,2,7.7.4,22.7-2.6,25.4-11Z"/>
  <path class="st0" d="M438.4,392.7l-.3,87.2c.4,1.7,6.9.9,7,.4v-88.3c-1.1,0-6.5-.2-6.7.6Z"/>
  <path class="st0" d="M121.7,550.3c-.9-.7-1.2-1.9-2-2.9-4.9-6.2-13.9-4-18.2,1.7-.9-1.7.8-5.2-2.1-5.1.2.5-.4,1.1-.4,1.4v31.1h2.7v-22.1c0-3.1,3.9-6.9,6.7-7.8,6.4-2.2,10.4,1.6,10.9,7.8.6,7.2-.8,14.8-.4,22.1h2.7c1.2-7.1-.4-15.1.4-22.1,1-9,15.6-12.3,17.2-1.9.2,1.4.4,3.9.5,5.4.3,6.2-.8,12.4-.4,18.6h2.7v-23.7c0-.5-.7-3.1-1-3.7-3.2-7.9-17.2-7-19.4,1.2Z"/>
  <path class="st0" d="M357.4,531.3v18.2c-3.8-5-9-7.1-15.2-5.2-8.8,2.6-10.3,13.9-8.9,21.7,2.2,12.6,17.2,15.1,24.3,5.1l.6,5.5c.8,0,2,.2,2.3-.6l-.3-45.6c-1.1,0-2.6-.4-2.7,1ZM350.3,574.3c-17.8,5.4-18.8-25.8-5.9-27.8,7-1.1,12.4,2.9,13,9.9.6,6.7.5,15.6-7.1,17.9Z"/>
  <path class="st0" d="M514.3,546l-3.8,3.5.4-19.2h-2.7v46.2h2s-.4-5.9-.4-5.9c7.9,11.1,24.1,7.6,25.4-6.5,1.4-14.3-6-25.3-20.9-18.1ZM532.4,562.2c-.5,8.7-5.6,14.6-14.8,12.1-6.7-1.9-7.2-11.4-6.7-17.2.4-5.1,2.5-9.8,8.1-10.7,10.8-1.7,14,6.6,13.4,15.8Z"/>
  <path class="st0" d="M11,551.6l15.8-16.6,1-2c-1.5-.2-2.8.4-3.9,1.4l-21.1,21.7v-22.5c0-.9-2.1-.5-2.7-.2v43.1h2.7v-17.4c1.5-1.2,3.9-4.2,5.5-5.1.3-.2.8-.3,1.1-.1l15.5,21.9c.4,1,4,1.9,3.7.6l-17.6-24.7Z"/>
  <path class="st0" d="M450,549.5c3.8-4.6,9-8.4,12.9-12.9.4-.5,2.6-3.1,2.1-3.5-.7,0-1.3,0-2,.2-2.5.7-13.4,13.3-16,16.1-1.7,1.8-4,4.4-5.9,5.9-.4.3-.5.8-1.2.6l.4-22.1c-.3-1.1-2.6-.6-2.7,0l-.4,42.8h2.5c0,0,.6-.6.6-.6l.3-17.7,6.2-4.4c.7,1.3,1.4,2.5,2.2,3.7,1.7,2.4,13.2,18.6,14.3,19,.9.3,1.9,0,2.9,0l-18-24.5c.6-.8,1.1-1.7,1.8-2.6Z"/>
  <path class="st0" d="M557.4,553.1c-3,8.9-.8,21.1,9.5,23.6,3.6.9,9.3.5,12.7-1,1-.5,3.6-2.6,1.2-2.5-1.7,0-4.3,1.2-6.3,1.4-3.2.3-7.7.2-10.5-1.6-3.2-2.2-5.2-8.3-5-12.1h22.9c.2,0,.6-.6.6-1-.6-3-.3-5.4-1.4-8.4-4.4-11.7-20.1-9.5-23.8,1.6ZM577.3,558.5c-4.2.4-11.5.3-15.7,0-.9,0-1.7-.3-2.5-.4.8-14.6,20.2-16.7,20.6-.6-.5.9-1.5.9-2.5,1Z"/>
  <path class="st0" d="M161.3,544.2c-6.4,1.7-9.7,7.9-10.2,14.1-.8,10.9,4.3,19.6,16.2,19,2.6-.1,8.4-1,9.2-3.9-5.8.5-14.3,3.3-19-1.6-1.6-1.7-4.8-9-3.5-11l23.3-.4c.5-9.8-5-19-16-16.2ZM173.2,558.5h-18.8c-1.9-.6,1.4-7.1,2.3-8.2,3.9-5.1,12.1-5.7,15.6,0,.9,1.4,3.7,8.2.8,8.2Z"/>
  <path class="st0" d="M397.7,543.7c-22.4.3-17.3,41.2,5.7,32.3,13.2-5.1,11.5-32.5-5.7-32.3ZM408.7,564.2c-.7,7.3-6.6,11.4-13.8,10.3-10.9-1.7-12.4-26.2.8-28,11.5-1.6,13.9,8.4,13,17.7Z"/>
  <path class="st0" d="M231.8,557.1c2.4-3.3,7.1-6.9,9.8-10.2.4-.5,2.1-2.5,1.6-2.9-1.8-.4-2.8,1-4.1,1.9l-15.5,16.8v-32.5h-2.7v46.2h2.7v-10c0-2.1,4.1-4.7,5.6-6l11.8,15.6c.5.4,3.1,1.1,3.3.2.2-1.1-11.7-15.6-13.3-17.7-.1-.5.4-1.1.7-1.5Z"/>
  <path class="st0" d="M483.8,543.7c-20.9,1.5-16.4,41,6.8,32.3,12.9-4.9,11.6-33.6-6.8-32.3ZM494.7,568.4c-3.3,7.7-15,8.7-19.2,1.4-3.8-6.7-2.9-21.7,6.6-23.3,12.9-2.2,16.6,12.4,12.5,21.9Z"/>
  <path class="st0" d="M46.1,543.7c-20.3,1.8-16.2,40,6.3,32.5,14.2-4.8,12.1-34.1-6.3-32.5ZM44.1,574.5c-10.4-1.8-12-26.1.8-28,7.3-1.1,12,2.4,13.3,9.6,1.8,10.1-2,20.5-14.1,18.4Z"/>
  <path class="st0" d="M615,547.4c-3.6-5-12.9-4.5-17.5-1.2-3.1,2.2-3.3,5-3.7-1.8-.4-.7-1.6-.4-1.8.2v31.9h2.7c-.5-3-.5-6.1-.4-9.2,0-1.1.4-2.1.4-3.1.2-5.6-1.4-12.1,3.8-15.8,3.8-2.7,11.7-3.4,14.6,1,.2.3,1.2,2.5,1.2,2.7v24.5h2.7c.3-6.2.7-12.4.4-18.6-.2-3.4-.4-7.7-2.4-10.5Z"/>
  <path class="st0" d="M324.2,549.3c0-.7-.4-4.7-.6-4.9-.5-.7-2-.5-2.2.2v20.7c0,.6-.8,3.2-1.1,4-2.8,6.2-15.6,8-18,1-.4-1.1-.9-4.7-.9-5.8v-20c-.2-.8-2.3-.2-2.4,0,.4,7.9-1.6,17.5.3,25.2,2.6,10.2,17.1,9.1,22.3,1.6l.2,5.1h2.4c-.4-8.9.5-18.3,0-27.2Z"/>
  <path class="st0" d="M251.4,553.9c-4.4-9.4,12.7-7.7,17.3-6,.9-.2.7-1.7.1-2.2-1.1-1.1-8.5-2.1-10.3-2-6.1.3-12.8,4.3-9.7,11.2,2.3,5,11.5,6,15.9,9.2,4.3,3.2,3.4,7.9-1.5,9.7-5.3,2-11,0-16.3-.8-.2,2.9,3.5,3.4,5.8,3.8,7.1,1.3,18.9-.5,17.2-10.2-1.3-7.7-16.1-7.4-18.6-12.7Z"/>
  <path class="st0" d="M85,560.6c-4.1-2.1-13.9-3.3-13.7-9.4.2-7.4,14-4.3,18.4-3.3.9-2.6-3.4-3.4-5.4-3.8-5.1-1-13.3-.6-15.3,5.3-3.1,9.4,10.6,10.8,15.9,14.4,6.3,4.2,2.1,10.1-4.1,10.7-1.6.2-4.3.1-5.9,0-2.8-.3-5-1.6-7.6-1.9.2.8.3,2.2,1,2.8.8.7,6.6,1.8,7.9,1.9,4.2.3,10.8-.8,13.2-4.7,3.1-4.9,0-9.6-4.5-11.9Z"/>
  <path class="st0" d="M629.7,574.2c0,0-1.4-.5-1.4-.6,5.4-7.8,11.5-15.3,16.4-23.5.5-.8,3.3-5.2,2.7-5.7h-20.9c-.1,0-.6.4-.9.5v1.9c0,0,17,0,17,0l.6.6c-4.8,8.5-11.6,16.2-16.6,24.5-.9,1.4-2.1,3-2.2,4.7h22.1c.9,0,1.3-1.6,1.4-2.3h-18.2Z"/>
  <path class="st0" d="M189.5,566.5c-.4-6.3.3-13,0-19.4,3.1-.8,6.2-.3,9.4,0v-2.7h-9.4v-7.2c-.7-.8-1-.8-1.5,0-.9,1.5-.3,4.8-1.2,6.5-.4.6-6.5,1.3-5.1,3,.8,1,4.6-.8,5,.6.5,6.6-.4,13.7,0,20.3.3,4,.7,7.7,5.1,9,2.1.6,8.8,1.2,8.2-2.2-8,.9-10,.2-10.6-8Z"/>
  <path class="st0" d="M282.5,572.2c-1.5-3.6-1.3-18.5-1-22.9,0-.7.1-1.3.4-1.9,3-.8,6-.8,9-.2v-2.7s-8.4,0-8.4,0c-.1,0-.6-.5-1-.4v-7.4c-2.8,0-1.8,5.1-2.5,7.1-.6,1-5.9.9-4.7,3.1h4.5s0,22.1,0,22.1c0,1,.8,3.9,1.4,4.9,1.9,3.5,7,4,10.4,2.9.9-.3,2.6-1.1,1.7-2.2-3.2,0-8.2,1.5-9.8-2.3Z"/>
  <path class="st0" d="M544.5,530.5c0,15.3.4,30.7-.4,46h2.7v-46c-.2-.8-2.3-.2-2.4,0Z"/>
  <path class="st0" d="M371.5,544.4v32.1h2.7c.6-10.7.6-21.4,0-32.1h-2.7Z"/>
  <rect class="st0" x="206.7" y="544.4" width="2.7" height="32.1"/>
  <path class="st0" d="M207.1,532.7l-.4,5.1h2.7c.7-.5,0-3.8-.1-4.7l-2.1-.3Z"/>
  <path class="st0" d="M374.3,537.8l-.2-4.7-2.1-.3c-.7,2.9-1.8,5.4,2.3,5Z"/>
</svg>